# xmcd
#
# Track frame offsets: 
#        150
#        16292
#        42395
#
# Disc length: 1012 seconds
#
# Revision: 0
# Processed by: cddbd v1.5.2PL0 Copyright (c) Steve Scherf et al.
# Submitted via: ExactAudioCopy v1.0b3
#
DISCID=1c03f203
DTITLE=CLOCK ZERO ～終焉の一秒～ ExTime / CLOCK ZERO ～終焉の一秒～ ExTime ソフマップ特典ドラ
DTITLE=マCD『デストロイ☆クッキング』
DYEAR=2015
DGENRE=Soundtrack
TTITLE0=『デストロイ☆クッキング』1
TTITLE1=『デストロイ☆クッキング』2
TTITLE2=『デストロイ☆クッキング』3
EXTD=
EXTT0=
EXTT1=
EXTT2=
PLAYORDER=
